<?xml version="1.0" encoding="UTF-8" standalone="no"?>
<!-- Created with Inkscape (http://www.inkscape.org/) -->

<svg
   xmlns:dc="http://purl.org/dc/elements/1.1/"
   xmlns:cc="http://creativecommons.org/ns#"
   xmlns:rdf="http://www.w3.org/1999/02/22-rdf-syntax-ns#"
   xmlns:svg="http://www.w3.org/2000/svg"
   xmlns="http://www.w3.org/2000/svg"
   xmlns:sodipodi="http://sodipodi.sourceforge.net/DTD/sodipodi-0.dtd"
   xmlns:inkscape="http://www.inkscape.org/namespaces/inkscape"
   id="svg2"
   version="1.1"
   inkscape:version="0.48.5 r10040"
   width="85.191254"
   height="125.4025"
   xml:space="preserve"
   sodipodi:docname="logo.svg"><metadata
     id="metadata8"><rdf:RDF><cc:Work
         rdf:about=""><dc:format>image/svg+xml</dc:format><dc:type
           rdf:resource="http://purl.org/dc/dcmitype/StillImage" /><dc:title></dc:title></cc:Work></rdf:RDF></metadata><defs
     id="defs6" /><sodipodi:namedview
     pagecolor="#ffffff"
     bordercolor="#666666"
     borderopacity="1"
     objecttolerance="10"
     gridtolerance="10"
     guidetolerance="10"
     inkscape:pageopacity="0"
     inkscape:pageshadow="2"
     inkscape:window-width="1600"
     inkscape:window-height="836"
     id="namedview4"
     showgrid="false"
     fit-margin-top="0"
     fit-margin-left="0"
     fit-margin-right="0"
     fit-margin-bottom="0"
     inkscape:zoom="1.5742516"
     inkscape:cx="144.92158"
     inkscape:cy="166.45581"
     inkscape:window-x="0"
     inkscape:window-y="27"
     inkscape:window-maximized="1"
     inkscape:current-layer="g10" /><g
     id="g10"
     inkscape:groupmode="layer"
     inkscape:label="ink_ext_XXXXXX"
     transform="matrix(1.25,0,0,-1.25,-13.727516,564.99056)"><path
       inkscape:connector-curvature="0"
       id="path648"
       style="fill:#ffffff;fill-opacity:1;fill-rule:nonzero;stroke:none"
       d="m 65.807013,398.98345 -5.955,-13.53 -14.353,-32.626 -14.358,32.626 -6.166,14.018 c -8.473,-6.095 -13.993,-16.032 -13.993,-27.264 l 0,-8.133 c 9.212,-7.738 21.095,-12.404 34.074,-12.404 12.978,0 24.862,4.666 34.079,12.404 l 0,8.133 c 0,10.938 -5.233,20.647 -13.328,26.776" /><path
       inkscape:connector-curvature="0"
       id="path650"
       style="fill:#e6736c;fill-opacity:1;fill-rule:nonzero;stroke:none"
       d="m 39.471013,392.59445 c 0.089,-1.832 1.046,-3.438 2.477,-4.395 l -1.997,-20.503 5.081,-5.483 5.129,5.438 -1.828,20.669 c 1.342,0.969 2.229,2.515 2.311,4.274 -1.784,-0.443 -3.651,-0.698 -5.588,-0.698 -1.938,0 -3.8,0.255 -5.585,0.698" /><path
       inkscape:connector-curvature="0"
       id="path652"
       style="fill:#ffffff;fill-opacity:1;fill-rule:nonzero;stroke:none"
       d="m 45.384013,424.96045 c -5.887,0 -10.801,1.563 -12.062,3.656 l -8.676,0 c -0.341,-1.348 -0.541,-2.745 -0.541,-4.186 l 0,-12.697 c 0,-8.651 6.512,-15.923 15.366,-18.121 1.785,-0.442 3.647,-0.696 5.585,-0.696 1.937,0 3.804,0.254 5.588,0.696 8.854,2.201 15.366,9.47 15.366,18.121 l 0,12.697 c 0,1.441 -0.196,2.838 -0.541,4.186 l -8.029,0 c -1.26,-2.093 -6.175,-3.656 -12.056,-3.656" /><path
       inkscape:connector-curvature="0"
       id="path654"
       style="fill:#e6736c;fill-opacity:1;fill-rule:nonzero;stroke:none"
       d="m 45.616013,451.99245 c -12.522,-0.019 -22.468,-9.553 -23.575,-21.337 l 11.508,0 c 1.261,-2.093 6.174,-3.654 12.06,-3.654 5.882,0 10.797,1.561 12.061,3.654 l 11.511,0 c -1.107,11.784 -11.05,21.318 -23.565,21.337 z m -0.007,-18.192 c -2.44,0 -4.42,1.979 -4.42,4.421 0,2.443 1.98,4.419 4.42,4.419 2.445,0 4.422,-1.976 4.422,-4.419 0,-2.442 -1.977,-4.421 -4.422,-4.421" /></g></svg>